<?xml version="1.0" standalone="no"?>
<!DOCTYPE svg PUBLIC "-//W3C//DTD SVG 20010904//EN"
 "http://www.w3.org/TR/2001/REC-SVG-20010904/DTD/svg10.dtd">
<svg version="1.0" xmlns="http://www.w3.org/2000/svg"
 width="1080.000000pt" height="1080.000000pt" viewBox="0 0 1080.000000 1080.000000"
 preserveAspectRatio="xMidYMid meet">

<g transform="translate(0.000000,1080.000000) scale(0.100000,-0.100000)"
fill="#000000" stroke="none">
<path d="M5040 9844 c-14 -1 -90 -8 -170 -14 -342 -27 -431 -56 -676 -219
-299 -200 -447 -358 -563 -601 -94 -196 -168 -446 -196 -665 -9 -66 -20 -149
-25 -185 -5 -36 -18 -89 -29 -118 -29 -73 -27 -102 20 -206 22 -50 43 -110 46
-133 3 -23 -1 -167 -8 -320 -19 -375 -17 -518 6 -567 24 -50 109 -117 218
-171 l89 -43 -36 -17 c-45 -22 -59 -39 -51 -65 9 -27 113 -111 189 -151 106
-57 294 -52 423 12 110 53 156 131 173 292 11 107 0 175 -42 267 -29 62 -102
289 -128 395 -41 172 -75 512 -64 644 7 95 39 219 73 290 32 67 138 182 237
256 96 73 169 146 194 195 32 62 74 88 194 115 134 30 201 52 246 80 38 24
187 176 234 238 16 21 49 50 73 64 40 23 50 25 126 20 85 -6 280 -62 382 -111
96 -46 167 -149 255 -366 23 -58 58 -139 78 -180 41 -84 41 -82 32 -440 -3
-109 0 -173 10 -215 19 -84 18 -369 -3 -512 -15 -100 -27 -149 -72 -288 -7
-22 -29 -98 -50 -170 -21 -71 -50 -167 -66 -212 l-29 -83 38 -16 c77 -33 86
-31 261 58 104 52 172 93 184 110 14 18 22 48 25 87 l4 58 62 6 c73 7 98 12
125 27 29 15 26 25 -12 49 -48 30 -58 61 -64 197 -5 109 -3 134 21 235 51 212
55 234 65 304 37 256 37 403 0 535 -29 106 -26 101 -286 500 -152 233 -234
322 -376 405 -56 32 -64 46 -48 81 22 49 -45 226 -93 244 -13 5 -26 20 -30 33
-8 35 -66 75 -157 108 -94 34 -180 77 -229 114 -64 47 -114 55 -344 54 -116
-1 -222 -3 -236 -5z"/>
<path d="M6030 6133 c0 -43 -131 -226 -217 -303 -32 -28 -125 -99 -208 -158
-82 -59 -152 -110 -153 -114 -2 -5 -25 -23 -50 -40 -61 -42 -196 -148 -200
-158 -1 -4 18 -15 43 -24 36 -14 74 -49 186 -169 78 -84 152 -163 165 -176
l22 -24 46 49 c25 27 58 62 73 78 16 16 54 66 85 110 32 45 66 92 77 106 113
142 249 348 258 391 3 17 -8 72 -26 136 -18 59 -37 126 -43 148 -19 72 -50
165 -54 165 -2 0 -4 -7 -4 -17z"/>
<path d="M6201 5848 c17 -61 10 -116 -27 -206 -44 -108 -117 -245 -155 -292
-16 -19 -52 -64 -80 -100 -28 -36 -110 -131 -182 -212 -101 -112 -135 -145
-147 -138 -8 4 -53 44 -100 89 -94 89 -126 102 -117 49 18 -102 27 -333 31
-830 6 -585 11 -671 53 -821 13 -48 40 -151 59 -230 41 -170 45 -285 15 -435
-10 -54 -24 -153 -31 -222 -6 -69 -18 -156 -26 -193 -8 -38 -14 -77 -14 -88 0
-19 18 -19 995 -19 l994 0 5 33 c6 38 34 667 42 952 5 163 2 240 -15 416 -29
301 -26 712 9 1015 6 51 11 102 12 115 1 34 44 241 69 329 12 41 27 101 35
132 8 31 34 107 59 169 53 133 57 171 19 196 -23 15 -56 17 -238 18 -218 1
-296 12 -486 64 -36 10 -94 23 -130 30 -60 11 -173 40 -345 89 -77 22 -210 73
-266 103 -48 25 -49 25 -38 -13z"/>
<path d="M7785 5449 c-42 -81 -156 -437 -187 -584 -21 -104 -22 -112 -38 -490
-10 -224 -10 -344 -1 -530 13 -285 14 -617 1 -960 -21 -556 -23 -633 -16 -658
l6 -27 1054 0 1053 0 -17 58 c-10 31 -26 86 -35 122 -10 36 -28 101 -41 145
-13 44 -31 107 -40 140 -9 33 -27 92 -39 130 -26 80 -47 152 -52 177 -7 41
-56 133 -91 173 -43 48 -100 151 -113 199 -11 45 -75 225 -94 266 -17 36 -24
50 -55 106 -20 35 -92 146 -100 154 -15 15 -90 131 -107 165 -11 22 -32 87
-48 145 -39 149 -63 220 -86 251 -10 15 -19 30 -19 35 0 16 -185 245 -262 324
-208 214 -251 265 -285 335 -27 57 -51 89 -114 149 -44 42 -84 76 -89 76 -5 0
-17 10 -27 23 -25 31 -119 107 -132 107 -6 0 -18 -14 -26 -31z"/>
<path d="M1810 977 c-117 -287 -220 -537 -227 -554 l-13 -33 52 0 53 0 56 143
57 142 237 0 238 0 56 -142 55 -143 53 0 c50 0 52 1 44 23 -13 33 -443 1082
-445 1084 0 1 -98 -233 -216 -520z m319 36 c50 -128 91 -235 91 -238 0 -3 -88
-5 -195 -5 -107 0 -195 3 -195 8 0 4 39 104 86 222 47 118 90 226 95 239 6 14
13 21 19 15 4 -5 49 -114 99 -241z"/>
<path d="M6280 977 c-117 -287 -220 -537 -227 -554 l-13 -33 52 0 53 0 56 143
57 142 237 0 238 0 56 -142 55 -143 53 0 c50 0 52 1 44 23 -13 33 -443 1082
-445 1084 0 1 -98 -233 -216 -520z m319 36 c50 -128 91 -235 91 -238 0 -3 -88
-5 -195 -5 -107 0 -195 3 -195 8 0 4 39 104 86 222 47 118 90 226 95 239 6 14
13 21 19 15 4 -5 49 -114 99 -241z"/>
<path d="M2620 941 l0 -551 50 0 50 0 0 392 c0 338 2 390 14 378 11 -11 389
-545 559 -790 16 -23 17 2 17 523 l0 547 -50 0 -50 0 -2 -387 -3 -388 -274
390 c-151 215 -283 401 -293 414 -18 23 -18 9 -18 -528z"/>
<path d="M3685 954 c-121 -295 -222 -543 -223 -551 -3 -11 7 -13 48 -11 l52 3
56 143 55 142 236 0 237 0 55 -142 56 -143 52 -3 c41 -2 52 0 49 11 -6 28
-443 1087 -448 1087 -3 0 -104 -241 -225 -536z m323 73 c51 -128 92 -239 92
-245 0 -9 -51 -12 -195 -12 l-195 0 13 33 c8 17 51 128 97 245 46 116 86 212
90 212 4 0 48 -105 98 -233z"/>
<path d="M5586 1051 c-93 -243 -172 -441 -175 -441 -3 0 -80 194 -170 431 -91
236 -167 432 -171 434 -5 3 -241 -1054 -240 -1077 0 -11 100 -10 100 0 0 18
151 708 159 727 8 18 10 18 20 -10 136 -350 295 -752 300 -757 3 -4 48 102
100 235 193 496 213 548 219 542 4 -3 42 -171 87 -373 l80 -367 48 -3 c34 -2
47 1 47 10 0 11 -225 1054 -233 1081 -1 5 -79 -190 -171 -432z"/>
<path d="M8960 937 l0 -547 45 0 45 0 0 390 c0 215 3 390 8 390 4 -1 124 -168
267 -372 143 -204 275 -392 293 -417 l32 -46 0 553 0 552 -50 0 -50 0 0 -386
c0 -246 -4 -384 -10 -382 -5 2 -136 183 -291 403 -155 220 -283 402 -285 404
-2 2 -4 -242 -4 -542z"/>
<path d="M330 915 l0 -528 183 6 c199 7 250 17 352 70 342 181 353 695 20 892
-107 64 -167 77 -372 83 l-183 4 0 -527z m378 410 c85 -20 135 -48 200 -109
131 -123 167 -329 86 -488 -84 -166 -243 -244 -479 -236 l-90 3 -3 423 -2 422
112 0 c64 0 140 -7 176 -15z"/>
<path d="M1330 915 l0 -525 50 0 50 0 0 525 0 525 -50 0 -50 0 0 -525z"/>
<path d="M7090 916 l0 -526 50 0 50 0 0 210 0 210 68 0 68 0 154 -209 155
-210 68 0 67 -1 -160 204 c-88 113 -160 207 -160 209 0 3 23 10 50 16 64 14
101 33 151 78 66 60 92 114 97 203 8 143 -48 239 -176 302 l-67 33 -207 4
-208 3 0 -526z m471 395 c49 -33 77 -77 88 -136 17 -91 -11 -171 -80 -227 -45
-36 -124 -50 -269 -46 l-105 3 -3 218 -2 219 167 -4 c159 -3 170 -4 204 -27z"/>
<path d="M7850 1395 l0 -45 125 0 125 0 0 -475 0 -475 50 0 50 0 0 475 0 475
130 0 130 0 0 45 0 45 -305 0 -305 0 0 -45z"/>
<path d="M8610 915 l0 -525 50 0 50 0 0 525 0 525 -50 0 -50 0 0 -525z"/>
<path d="M9890 915 l0 -525 305 0 305 0 0 50 0 50 -260 0 -260 0 0 190 0 190
255 0 255 0 0 45 0 45 -255 0 -255 0 2 193 3 192 258 3 257 2 0 45 0 45 -305
0 -305 0 0 -525z"/>
</g>
</svg>
