<?xml version="1.0" standalone="no"?>
<!DOCTYPE svg PUBLIC "-//W3C//DTD SVG 20010904//EN"
 "http://www.w3.org/TR/2001/REC-SVG-20010904/DTD/svg10.dtd">
<svg version="1.0" xmlns="http://www.w3.org/2000/svg"
 width="1080.000000pt" height="1080.000000pt" viewBox="0 0 1080.000000 1080.000000"
 preserveAspectRatio="xMidYMid meet">

<g transform="translate(0.000000,1080.000000) scale(0.100000,-0.100000)"
fill="#000000" stroke="none">
<path d="M4395 9634 c-11 -3 -30 -7 -43 -10 -28 -6 -52 -57 -52 -109 0 -19 -4
-43 -9 -53 -6 -9 -21 -42 -34 -73 l-25 -56 -78 5 c-44 2 -82 7 -85 11 -13 12
23 175 42 197 20 21 23 41 13 68 -9 24 -75 20 -115 -7 -36 -24 -52 -63 -81
-192 -16 -75 -33 -84 -153 -86 -49 0 -99 -4 -109 -8 -20 -8 -59 -132 -49 -157
4 -10 27 -14 84 -14 l79 0 0 -37 c0 -21 -4 -44 -8 -50 -10 -15 -91 -43 -152
-52 l-45 -6 -12 -55 c-24 -110 -23 -112 27 -130 34 -12 46 -21 48 -39 2 -13
-13 -84 -33 -159 l-37 -135 23 -18 c27 -21 81 -34 104 -25 20 7 44 62 104 231
l46 130 85 0 85 0 -1 -35 c-1 -19 -24 -89 -52 -155 -28 -66 -51 -128 -52 -138
0 -16 9 -17 84 -14 90 5 110 11 102 33 -3 7 -1 16 5 20 5 3 7 15 3 26 -3 11
-1 24 5 27 6 4 27 48 46 97 62 155 61 155 135 175 36 9 76 16 89 15 28 -1 71
52 71 89 0 20 -6 23 -66 28 -39 3 -72 11 -81 20 -23 23 -8 94 27 129 24 24 37
28 84 28 83 0 103 11 120 67 8 26 17 55 21 64 5 13 -5 17 -61 22 -93 9 -102
20 -75 91 12 31 21 66 21 77 0 11 12 40 26 64 15 27 24 55 22 72 -3 24 -8 28
-38 30 -19 0 -44 -1 -55 -3z m35 -66 c-1 -19 -39 -100 -57 -120 -18 -21 -43
-24 -43 -6 0 7 12 29 27 51 21 30 24 40 13 47 -7 4 -10 15 -7 24 8 19 67 22
67 4z m-384 -9 c7 -12 -22 -46 -32 -37 -8 9 5 48 16 48 5 0 12 -5 16 -11z
m-16 -94 c0 -16 -6 -25 -15 -25 -16 0 -19 9 -9 34 9 25 24 19 24 -9z m339 -62
c-6 -16 -22 -40 -37 -55 -20 -22 -22 -28 -9 -28 10 0 18 -12 22 -34 8 -41 35
-49 92 -30 46 17 46 17 37 3 -10 -17 -94 -52 -138 -58 -33 -5 -41 -11 -47 -35
-8 -30 -55 -86 -72 -86 -5 0 -4 7 3 15 6 8 9 19 5 25 -13 21 5 60 35 75 17 9
28 20 25 26 -4 5 3 21 15 36 18 23 19 28 5 43 -20 22 -19 33 5 55 11 10 20 23
20 28 0 13 30 47 41 47 5 0 4 -12 -2 -27z m-355 -1 c2 -4 -4 -19 -15 -32 -14
-19 -19 -21 -19 -8 0 36 21 61 34 40z m-44 -92 c-5 -17 -9 -34 -9 -38 0 -10
-51 -15 -51 -6 0 7 60 74 66 74 2 0 -1 -14 -6 -30z m238 -24 c3 -3 16 -6 29
-6 13 0 23 -4 23 -9 0 -15 -42 -41 -65 -41 -12 0 -30 -7 -41 -15 -24 -18 -34
-19 -34 -1 0 13 -5 13 -36 0 -40 -17 -54 -13 -34 11 11 13 9 13 -23 0 -20 -8
-47 -15 -60 -15 -14 0 -36 -9 -50 -20 -28 -22 -51 -26 -45 -8 5 14 92 64 164
93 51 21 155 27 172 11z m-474 -17 c-4 -8 3 -9 22 -5 49 10 60 -7 24 -38 -34
-28 -103 -39 -81 -12 9 11 8 15 -4 20 -22 8 -1 46 26 46 12 0 17 -4 13 -11z
m146 -4 c-10 -12 -9 -16 4 -21 9 -3 16 -9 16 -13 0 -11 -47 -31 -71 -31 -17 0
-18 3 -8 23 18 34 41 57 57 57 12 0 12 -3 2 -15z m604 -50 c-4 -9 -19 -15 -38
-15 -29 1 -30 1 -12 15 26 20 57 20 50 0z m-349 -59 c19 -8 35 -17 35 -20 0
-3 -14 -35 -32 -70 -31 -63 -34 -66 -75 -72 -55 -8 -160 -1 -173 12 -6 6 5 32
33 74 l42 65 58 6 c32 4 61 9 64 13 8 8 9 8 48 -8z m-245 -36 c0 -11 -33 -30
-52 -30 -7 1 -3 9 11 20 25 22 41 26 41 10z m-45 -82 c-1 -18 -9 -47 -18 -64
-13 -26 -24 -33 -61 -38 -50 -8 -86 -36 -45 -36 33 0 11 -18 -26 -21 -56 -4
-72 1 -83 25 -13 29 -8 34 63 65 30 14 51 18 53 11 6 -17 72 -12 72 5 0 23 28
85 37 85 5 0 8 -15 8 -32z m382 -2 c-7 -19 -47 -41 -47 -26 0 13 40 53 47 46
3 -3 3 -12 0 -20z m3 -54 c0 -14 -23 -32 -42 -32 -23 0 -23 16 0 29 21 13 42
14 42 3z m-318 -83 c-18 -16 -38 -27 -44 -23 -6 4 -35 -6 -64 -22 -41 -22 -56
-26 -65 -17 -20 20 -2 43 53 68 34 16 71 25 103 25 l50 -1 -33 -30z m302 0
c-16 -17 -49 -44 -73 -60 -43 -28 -45 -28 -58 -9 -7 10 -29 22 -48 26 -46 8
-44 28 5 48 48 19 77 20 82 5 3 -9 16 -8 49 4 67 24 76 21 43 -14z m184 19
c-3 -7 -31 -16 -64 -21 -79 -10 -97 -5 -59 16 36 20 129 23 123 5z m-243 -117
c-3 -6 -14 -11 -23 -11 -15 1 -15 2 2 15 21 16 32 13 21 -4z m-386 -37 c-8
-10 -15 -12 -23 -4 -7 7 -4 14 10 24 22 17 32 3 13 -20z m346 -4 c-3 -5 -15
-10 -26 -10 -11 0 -17 5 -14 10 3 6 15 10 26 10 11 0 17 -4 14 -10z m-399 -35
c-11 -8 -22 -12 -25 -9 -6 6 19 24 34 24 6 -1 1 -7 -9 -15z m414 4 c0 -16 -56
-69 -74 -69 -22 0 -20 17 3 25 11 3 18 12 15 19 -3 7 5 18 18 24 30 14 38 14
38 1z m-375 -28 c-3 -6 -14 -11 -23 -11 -15 1 -15 2 2 15 21 16 32 13 21 -4z
m334 -80 c-18 -82 -44 -119 -74 -107 -18 6 -20 58 -4 87 9 18 65 59 80 59 4 0
3 -17 -2 -39z m-389 -29 c0 -4 -13 -23 -30 -42 -27 -32 -29 -33 -30 -12 0 12
9 31 20 42 20 20 40 26 40 12z m-25 -92 c-3 -5 -11 -10 -16 -10 -6 0 -7 5 -4
10 3 6 11 10 16 10 6 0 7 -4 4 -10z"/>
<path d="M7155 9482 c-14 -15 6 -338 38 -617 l12 -100 45 0 45 0 12 115 c40
396 51 584 33 595 -12 8 -178 14 -185 7z m95 -62 c-20 -13 -33 -13 -25 0 3 6
14 10 23 10 15 0 15 -2 2 -10z m50 -50 c0 -5 -5 -10 -11 -10 -5 0 -7 5 -4 10
3 6 8 10 11 10 2 0 4 -4 4 -10z m-82 -35 c-10 -23 -10 -29 5 -39 12 -10 14
-15 5 -24 -21 -21 -28 -13 -28 37 0 30 5 51 13 54 18 6 19 2 5 -28z m53 -98
c-16 -16 -26 0 -10 19 9 11 15 12 17 4 2 -6 -1 -17 -7 -23z m9 -95 c0 -11 -22
-32 -32 -32 -5 0 -4 9 2 20 11 20 30 28 30 12z m-30 -86 c0 -7 -7 -19 -15 -26
-12 -10 -15 -9 -15 7 0 11 3 23 7 26 11 12 23 8 23 -7z m10 -148 c0 -59 -10
-94 -21 -76 -10 15 -12 102 -2 111 15 16 23 4 23 -35z"/>
<path d="M5100 9297 c-36 -13 -77 -31 -91 -40 -26 -17 -27 -17 -43 8 -16 25
-21 26 -74 19 -31 -3 -61 -10 -66 -15 -5 -4 -11 -147 -13 -316 -3 -169 -5
-348 -6 -397 l-2 -90 50 -13 c81 -21 110 -17 124 14 21 46 33 200 24 313 -10
132 -7 170 19 248 15 47 26 66 44 72 12 5 41 21 63 35 l41 25 53 -24 c113 -50
133 -122 125 -444 l-5 -190 32 -18 c25 -13 47 -16 100 -12 102 9 100 4 85 210
-18 240 -17 351 4 382 16 25 41 35 162 63 50 11 96 -8 138 -57 24 -29 25 -37
24 -133 -2 -150 25 -420 45 -451 32 -48 123 -43 161 8 20 26 21 40 20 245 -2
164 -6 233 -18 281 -53 208 -210 315 -396 270 -66 -15 -80 -22 -146 -72 -28
-21 -57 -38 -64 -38 -7 0 -33 18 -57 41 -97 89 -220 117 -333 76z m204 -50
c10 -7 17 -22 15 -33 -5 -25 -76 -34 -85 -10 -5 14 -9 14 -34 1 -17 -9 -30
-11 -32 -5 -2 6 -17 6 -42 -1 -29 -8 -41 -8 -46 1 -5 8 -24 -10 -54 -49 -43
-56 -82 -89 -92 -78 -2 2 5 12 16 22 11 10 20 26 20 35 0 10 9 29 21 44 23 29
107 76 126 69 6 -2 14 1 18 6 9 16 147 14 169 -2z m537 -8 c11 -5 17 -14 13
-20 -3 -6 4 -7 20 -3 54 13 165 -97 152 -151 -5 -18 -2 -25 7 -25 17 0 28 -66
20 -115 -5 -34 -22 -45 -72 -45 -21 0 -22 2 -10 17 12 15 12 16 -4 10 -15 -6
-17 -3 -11 16 12 37 12 112 0 119 -8 5 -8 13 2 28 11 19 11 20 -11 15 -20 -5
-26 -1 -37 24 -7 17 -19 31 -26 31 -8 0 -14 7 -14 16 0 8 -4 13 -9 10 -16 -10
-131 17 -131 31 0 10 -5 11 -19 4 -10 -6 -21 -8 -24 -5 -3 3 -23 -4 -46 -15
-22 -12 -46 -21 -52 -21 -21 0 31 48 75 70 45 22 143 28 177 9z m-916 -55 c-2
-25 -6 -48 -9 -51 -3 -4 -6 -2 -6 4 0 6 -8 9 -18 6 -16 -4 -19 2 -20 41 0 44
1 46 28 46 27 0 28 -2 25 -46z m456 16 c29 -16 23 -28 -18 -39 -52 -15 -70 1
-37 33 18 19 28 20 55 6z m5 -65 c-22 -17 -46 -20 -46 -6 0 11 18 19 45 20 20
0 20 0 1 -14z m54 -5 c0 -12 -34 -30 -57 -30 -15 0 -14 4 7 20 27 21 50 26 50
10z m110 -6 c0 -18 -75 -95 -98 -101 l-27 -7 25 -6 c24 -6 23 -7 -18 -29 -50
-26 -63 -22 -33 8 18 18 19 21 4 21 -13 0 -10 7 13 31 55 60 134 108 134 83z
m-122 -46 c-6 -16 -55 -34 -65 -24 -10 10 26 36 50 36 10 0 17 -5 15 -12z m20
-159 c-39 -34 -71 -40 -43 -9 17 19 17 20 -1 20 -13 0 -5 10 26 30 44 29 45
29 48 9 3 -14 -7 -31 -30 -50z m52 -35 c0 -46 -49 -114 -82 -114 -29 0 -21 19
17 41 44 26 44 33 1 25 -19 -4 -37 -3 -40 2 -10 17 79 86 96 76 5 -3 8 -16 8
-30z m-547 -21 c-11 -30 -43 -45 -43 -20 0 17 20 37 37 37 8 0 10 -7 6 -17z
m1107 -17 c0 -28 -33 -56 -67 -56 -32 0 -29 10 14 47 46 39 53 40 53 9z m-87
-8 c-24 -23 -40 -20 -30 7 4 8 17 15 29 15 l22 0 -21 -22z m-473 -68 c0 -28
-3 -30 -37 -30 l-37 0 29 30 c16 17 32 30 37 30 4 0 8 -13 8 -30z m559 7 c13
-17 6 -24 -38 -43 -50 -21 -60 -17 -26 11 33 27 23 34 -13 9 -13 -9 -22 -11
-22 -4 0 11 54 39 76 40 6 0 17 -6 23 -13z m-1169 -22 c-7 -9 -15 -13 -17 -11
-7 7 7 26 19 26 6 0 6 -6 -2 -15z m1180 -49 c0 -19 -4 -37 -9 -41 -5 -3 -6
-18 -2 -33 6 -23 7 -68 2 -94 -2 -11 -64 -29 -72 -21 -8 8 -32 174 -26 179 5
6 92 44 100 44 4 0 7 -15 7 -34z m-619 -26 c-45 -41 -66 -44 -55 -7 9 31 33
47 68 47 l31 -1 -44 -39z m59 5 c0 -34 -72 -105 -107 -105 -27 0 -11 18 30 35
31 13 37 19 24 22 -18 4 -17 6 4 29 20 22 49 33 49 19z m-630 -24 c0 -14 -18
-23 -30 -16 -6 4 -8 11 -5 16 8 12 35 12 35 0z m52 -33 c-7 -7 -12 -8 -12 -2
0 14 12 26 19 19 2 -3 -1 -11 -7 -17z m563 -96 c-3 -4 -11 0 -16 8 -8 11 -12
12 -16 3 -2 -7 -16 -13 -29 -13 -41 0 -30 33 19 57 l42 20 3 -34 c2 -19 1 -38
-3 -41z m-615 18 c0 -5 -4 -10 -10 -10 -5 0 -10 5 -10 10 0 6 5 10 10 10 6 0
10 -4 10 -10z m50 -30 c0 -5 -7 -10 -16 -10 -8 0 -12 5 -9 10 3 6 10 10 16 10
5 0 9 -4 9 -10z"/>
<path d="M6570 9289 c-30 -5 -82 -23 -116 -39 -56 -27 -63 -34 -87 -87 -38
-87 -65 -182 -72 -260 -6 -59 -4 -79 17 -139 45 -128 145 -251 224 -274 132
-38 437 -9 476 45 11 15 10 63 -2 86 -14 25 -59 25 -180 -2 -109 -24 -130 -22
-225 18 -63 26 -72 34 -93 76 -14 26 -26 74 -29 108 -6 62 -6 62 18 54 31 -10
390 -19 447 -10 28 4 53 16 72 35 28 27 30 34 30 104 0 41 -5 78 -10 81 -6 4
-22 30 -36 58 -31 61 -61 97 -83 97 -8 0 -25 10 -39 23 -21 20 -33 22 -128 22
-57 0 -104 3 -104 8 0 8 -5 8 -80 -4z m290 -59 c8 0 21 -9 27 -19 7 -11 25
-21 40 -23 24 -3 28 -8 28 -33 0 -46 -37 -46 -85 0 -28 27 -49 38 -81 42 -44
6 -69 18 -69 34 0 5 20 6 44 3 29 -4 46 -2 51 6 5 8 10 9 18 1 6 -6 18 -11 27
-11z m-182 1 c20 -12 -9 -21 -73 -21 -36 0 -55 -4 -58 -14 -3 -9 -15 -12 -31
-9 -17 4 -26 1 -26 -7 0 -7 -15 -33 -33 -59 -18 -25 -39 -65 -47 -89 -12 -38
-12 -44 5 -56 14 -10 16 -20 11 -47 -4 -19 -8 -47 -9 -64 -2 -24 -7 -31 -27
-33 -22 -2 -26 1 -28 26 -1 20 6 36 28 57 37 36 38 45 2 45 l-29 0 8 55 c14
104 70 182 151 212 39 14 137 16 156 4z m95 -91 c53 -20 94 -54 116 -97 6 -12
7 -24 2 -27 -32 -20 -387 -14 -408 8 -11 11 21 68 51 90 66 49 151 59 239 26z
m221 -52 c19 -27 20 -52 4 -81 -7 -12 -11 -33 -9 -47 1 -19 -3 -26 -16 -28
-10 -1 -44 -4 -75 -8 -37 -4 -58 -3 -58 4 0 13 24 22 59 22 15 0 36 6 46 14
17 12 18 18 6 69 -8 30 -11 60 -7 66 11 18 34 13 50 -11z m-504 -127 c0 -13
-29 -35 -37 -28 -7 8 15 37 28 37 5 0 9 -4 9 -9z m78 -11 c27 -1 -29 -29 -57
-30 -24 0 -24 0 -6 20 10 12 25 18 33 15 7 -3 21 -5 30 -5z m112 -9 c0 -19
-30 -33 -60 -26 -52 11 -33 31 33 34 15 0 27 -3 27 -8z m120 -10 c0 -11 -17
-17 -79 -26 -34 -6 -42 -4 -39 6 7 22 118 40 118 20z m-392 -137 c-3 -19 -34
-41 -43 -32 -4 3 -2 16 5 27 13 25 43 28 38 5z m28 -31 c22 -29 16 -43 -16
-43 -33 0 -37 9 -18 40 16 24 17 24 34 3z m24 -66 c0 -7 -7 -22 -15 -33 -15
-19 -15 -19 -30 0 -11 14 -12 23 -4 33 15 17 49 17 49 0z m44 -66 c3 -4 0 -15
-7 -24 -11 -14 -15 -13 -42 8 l-30 25 37 0 c20 0 39 -4 42 -9z m66 -26 c0 -14
-29 -35 -49 -35 -15 0 -14 23 1 38 17 17 48 15 48 -3z m30 -23 c0 -4 16 -6 35
-4 39 5 43 -2 18 -30 -18 -20 -40 -23 -79 -8 -26 10 -26 11 -9 30 19 21 35 26
35 12z m370 -12 c0 -12 -45 -24 -63 -17 -7 3 -46 -1 -87 -9 -88 -15 -153 -18
-146 -5 3 5 44 12 91 16 47 4 98 11 113 15 38 12 92 12 92 0z"/>
<path d="M7204 8553 c-3 -22 -3 -50 1 -62 6 -19 13 -20 68 -17 l62 3 3 45 c4
62 -15 80 -79 76 l-49 -3 -6 -42z m80 -9 c25 -9 19 -24 -9 -24 -16 0 -25 6
-25 15 0 16 9 19 34 9z"/>
<path d="M4985 8165 c-201 -18 -285 -32 -349 -55 -129 -49 -431 -259 -527
-368 -190 -215 -296 -490 -350 -907 -6 -49 -18 -109 -25 -133 -23 -71 -17
-126 22 -225 36 -89 37 -93 31 -192 -32 -535 -32 -583 6 -644 22 -37 105 -94
190 -132 l54 -24 -36 -20 c-20 -11 -37 -28 -39 -38 -4 -22 58 -81 136 -128 56
-34 57 -34 182 -34 109 0 131 3 175 23 61 28 112 75 133 122 8 19 20 72 27
118 14 94 7 144 -32 232 -72 161 -130 402 -149 618 -20 239 -6 380 51 492 29
58 131 162 233 240 40 30 86 75 103 100 62 95 72 101 181 124 184 38 251 82
388 254 19 24 48 52 66 62 47 30 133 26 241 -9 48 -15 100 -31 115 -35 44 -10
145 -74 167 -104 24 -35 92 -176 161 -337 50 -115 52 -123 52 -210 -1 -49 -6
-120 -11 -157 -9 -52 -8 -87 3 -160 24 -154 28 -247 16 -375 -13 -142 -26
-208 -70 -353 -67 -218 -108 -355 -112 -369 -4 -20 68 -44 107 -36 43 8 226
101 269 137 33 27 36 33 36 84 l0 54 53 1 c56 1 119 19 124 36 2 6 -10 19 -26
29 -39 23 -41 30 -48 154 -5 106 -1 139 37 300 33 139 50 277 50 410 0 186
-15 228 -156 450 -198 312 -259 387 -383 470 -68 46 -81 58 -75 75 19 56 -18
168 -73 225 -16 16 -39 40 -53 54 -14 15 -61 40 -105 57 -44 17 -120 54 -170
82 l-90 52 -195 1 c-107 1 -258 -4 -335 -11z"/>
<path d="M5920 5097 c0 -32 -68 -142 -127 -208 -33 -36 -149 -129 -223 -179
-30 -20 -244 -182 -250 -189 -3 -3 -22 -19 -42 -34 -21 -15 -38 -31 -38 -35 0
-4 19 -16 42 -27 28 -13 86 -68 172 -162 151 -164 125 -162 240 -21 60 74 85
106 148 193 4 5 29 39 55 75 97 131 133 197 133 241 0 41 -27 150 -61 247 -11
29 -19 61 -19 70 0 10 -7 27 -15 38 -14 18 -14 18 -15 -9z"/>
<path d="M6067 4817 c5 -52 1 -74 -22 -132 -40 -100 -110 -223 -163 -287 -26
-30 -64 -75 -84 -99 -93 -111 -185 -213 -201 -223 -12 -7 -20 -8 -25 -1 -4 6
-45 44 -91 85 l-84 75 6 -105 c3 -58 8 -307 11 -555 6 -525 14 -621 81 -872
41 -157 45 -183 45 -288 0 -64 -6 -144 -14 -178 -8 -34 -22 -123 -31 -198 -8
-75 -18 -153 -22 -173 l-6 -36 832 0 831 0 4 22 c19 91 24 845 11 1418 -10
433 8 654 75 905 44 164 68 243 94 300 17 37 26 71 24 94 -5 55 -28 62 -182
56 -72 -3 -152 -1 -180 5 -121 24 -380 81 -386 85 -4 2 -20 6 -36 9 -71 13
-270 68 -309 86 -24 11 -47 20 -50 20 -3 0 -31 11 -61 25 -30 14 -58 25 -63
25 -5 0 -6 -28 -4 -63z"/>
<path d="M7390 4539 c-31 -57 -121 -326 -150 -446 -39 -160 -42 -237 -46
-1128 -3 -478 -5 -928 -7 -1000 l-2 -130 878 -3 878 -2 -7 22 c-4 13 -18 61
-31 108 -13 47 -34 123 -47 170 -44 158 -118 395 -134 425 -8 17 -28 44 -44
60 -40 40 -68 98 -113 230 -54 157 -81 212 -189 374 -60 89 -102 163 -111 195
-7 28 -23 87 -35 132 -12 44 -38 110 -58 147 -40 72 -181 242 -333 401 -60 63
-108 123 -127 161 -30 60 -93 127 -223 236 -85 73 -86 73 -99 48z"/>
<path d="M4981 3094 c0 -11 3 -14 6 -6 3 7 2 16 -1 19 -3 4 -6 -2 -5 -13z"/>
<path d="M3952 1273 c-6 -15 -44 -110 -85 -210 -73 -176 -75 -183 -53 -183 19
0 27 10 43 53 l20 52 89 0 88 0 21 -52 c16 -42 24 -53 42 -53 l23 0 -19 48
c-64 162 -145 358 -151 365 -4 5 -12 -4 -18 -20z m56 -165 l31 -78 -70 0 c-38
0 -69 3 -69 8 0 20 64 162 70 155 4 -4 21 -43 38 -85z"/>
<path d="M4190 1091 c0 -203 1 -211 20 -211 18 0 20 8 22 146 l3 146 109 -156
c60 -86 110 -156 112 -156 2 0 4 94 4 210 0 202 -1 210 -20 210 -18 0 -20 -8
-22 -147 l-3 -148 -94 135 c-52 74 -102 146 -113 159 -18 23 -18 20 -18 -188z"/>
<path d="M4678 1294 c-9 -14 -168 -402 -168 -409 0 -4 10 -5 21 -3 16 2 27 17
42 56 l20 52 87 0 88 0 22 -55 c16 -39 28 -55 41 -55 11 0 19 4 19 8 0 4 -34
91 -76 192 -42 102 -79 194 -83 204 -4 11 -10 15 -13 10z m35 -164 c14 -36 28
-73 32 -82 6 -16 0 -18 -64 -18 l-71 0 20 50 c37 94 50 123 54 119 2 -2 15
-33 29 -69z"/>
<path d="M5658 1294 c-9 -14 -168 -402 -168 -409 0 -4 10 -5 21 -3 16 2 27 17
42 56 l20 52 87 0 88 0 22 -55 c16 -39 28 -55 41 -55 11 0 19 4 19 8 0 4 -34
91 -76 192 -42 102 -79 194 -83 204 -4 11 -10 15 -13 10z m35 -164 c14 -36 28
-73 32 -82 6 -16 0 -18 -64 -18 l-71 0 20 50 c37 94 50 123 54 119 2 -2 15
-33 29 -69z"/>
<path d="M6590 1091 c0 -203 1 -211 20 -211 18 0 20 8 22 146 l3 146 109 -156
c60 -86 110 -156 112 -156 2 0 4 94 4 210 0 202 -1 210 -20 210 -18 0 -20 -8
-22 -147 l-3 -148 -94 135 c-52 74 -102 146 -113 159 -18 23 -18 20 -18 -188z"/>
<path d="M5072 1093 c-23 -109 -42 -201 -42 -205 0 -5 9 -8 19 -8 20 0 21 2
58 180 8 41 18 78 22 82 3 4 31 -55 61 -132 30 -77 57 -140 60 -140 3 0 30 63
59 140 30 77 57 137 61 133 4 -4 13 -35 19 -68 40 -187 42 -195 63 -195 16 0
19 5 16 23 -32 156 -84 387 -88 387 -3 0 -32 -70 -65 -155 -32 -85 -61 -155
-65 -155 -4 0 -33 70 -65 155 -33 85 -62 155 -65 155 -3 0 -24 -89 -48 -197z"/>
<path d="M3320 1081 l0 -201 74 0 c104 0 169 34 208 109 35 67 35 112 2 179
-37 75 -90 104 -201 110 l-83 5 0 -202z m180 137 c33 -17 51 -35 68 -68 58
-113 -23 -229 -160 -230 l-48 0 0 160 0 160 48 0 c30 0 65 -9 92 -22z"/>
<path d="M3700 1080 c0 -193 1 -200 20 -200 19 0 20 7 20 200 0 193 -1 200
-20 200 -19 0 -20 -7 -20 -200z"/>
<path d="M5880 1080 c0 -192 1 -200 20 -200 17 0 19 8 22 78 3 70 5 77 25 80
16 2 35 -15 83 -77 48 -64 66 -81 86 -81 29 0 29 1 -38 86 -26 34 -48 64 -48
67 0 3 10 7 23 11 68 17 106 113 67 174 -28 45 -74 62 -165 62 l-75 0 0 -200z
m175 154 c25 -10 47 -62 40 -95 -10 -43 -40 -59 -112 -59 l-63 0 0 73 c0 41 3
77 7 80 8 9 106 9 128 1z"/>
<path d="M6170 1260 c0 -17 7 -20 50 -20 l50 0 0 -180 c0 -173 1 -180 20 -180
19 0 20 7 20 180 l0 180 50 0 c43 0 50 3 50 20 0 19 -7 20 -120 20 -113 0
-120 -1 -120 -20z"/>
<path d="M6460 1080 c0 -193 1 -200 20 -200 19 0 20 7 20 200 0 193 -1 200
-20 200 -19 0 -20 -7 -20 -200z"/>
<path d="M6940 1080 l0 -200 120 0 c113 0 120 1 120 20 0 19 -7 20 -100 20
l-100 0 0 70 0 70 101 0 c90 0 100 2 97 18 -3 14 -17 17 -101 20 l-97 3 0 69
0 70 100 0 c93 0 100 1 100 20 0 19 -7 20 -120 20 l-120 0 0 -200z"/>
</g>
</svg>
